/* XPM */
static char * new_xpm[] = {
"64 64 112 2",
"  	c None",
". 	c #343434",
"+ 	c #90F142",
"@ 	c #90F042",
"# 	c #91F142",
"$ 	c #66A53A",
"% 	c #90F043",
"& 	c #90F143",
"* 	c #66A63A",
"= 	c #FFFFFF",
"- 	c #C7F7B1",
"; 	c #91F042",
"> 	c #67A53A",
", 	c #C8F7B1",
"' 	c #C7F6B1",
") 	c #67A63A",
"! 	c #8FEF42",
"~ 	c #8FF041",
"{ 	c #8FF042",
"] 	c #8EEE40",
"^ 	c #8DEE40",
"/ 	c #C7F5B1",
"( 	c #65A439",
"_ 	c #8CEC3E",
": 	c #8CED3F",
"< 	c #C6F5B0",
"[ 	c #8CED3E",
"} 	c #64A239",
"| 	c #8AEB3D",
"1 	c #8BEA3D",
"2 	c #C5F3B0",
"3 	c #8BEB3D",
"4 	c #89E83C",
"5 	c #89E93C",
"6 	c #88E63B",
"7 	c #88E73A",
"8 	c #87E63A",
"9 	c #86E439",
"0 	c #85E53A",
"a 	c #86E53A",
"b 	c #85E338",
"c 	c #84E338",
"d 	c #83E137",
"e 	c #83E136",
"f 	c #82E136",
"g 	c #81DF35",
"h 	c #80DD33",
"i 	c #7FDD34",
"j 	c #80DD34",
"k 	c #7EDB32",
"l 	c #7EDC32",
"m 	c #7FDC32",
"n 	c #7CDA31",
"o 	c #7DDA31",
"p 	c #7BD830",
"q 	c #7BD82F",
"r 	c #79D62F",
"s 	c #79D72E",
"t 	c #7AD62E",
"u 	c #7AD62F",
"v 	c #78D42D",
"w 	c #78D52D",
"x 	c #77D22C",
"y 	c #76D22C",
"z 	c #77D22B",
"A 	c #75D02A",
"B 	c #75D12A",
"C 	c #74D02B",
"D 	c #75D12B",
"E 	c #73CF29",
"F 	c #73CE29",
"G 	c #72CD28",
"H 	c #71CD28",
"I 	c #70CB26",
"J 	c #70CB27",
"K 	c #6FC925",
"L 	c #6EC925",
"M 	c #6EC924",
"N 	c #6DC824",
"O 	c #6CC823",
"P 	c #6DC724",
"Q 	c #6CC622",
"R 	c #6BC622",
"S 	c #6BC522",
"T 	c #6AC421",
"U 	c #69C421",
"V 	c #68C220",
"W 	c #68C21F",
"X 	c #67C01E",
"Y 	c #66C01E",
"Z 	c #65BE1D",
"` 	c #65BF1D",
" .	c #64BD1C",
"..	c #63BD1B",
"+.	c #63BD1C",
"@.	c #62BA1A",
"#.	c #62BB1B",
"$.	c #61B919",
"%.	c #60B919",
"&.	c #5FB717",
"*.	c #5DB516",
"=.	c #5EB516",
"-.	c #5BB415",
";.	c #5BB315",
">.	c #5CB315",
",.	c #5CB314",
"'.	c #5BB213",
").	c #5AB214",
"!.	c #5AB114",
"~.	c #5AB113",
"{.	c #59B113",
"].	c #59B114",
"                                                                                                                                ",
"                . . . . . . . . . . . . . . . . . . . . . . . . . . . . . . . . . . .                                           ",
"                . . . . . . . . . . . . . . . . . . . . . . . . . . . . . . . . . . . .                                         ",
"                . . . . . . . . . . . . . . . . . . . . . . . . . . . . . . . . . . . . .                                       ",
"                . . . + + + + + @ + + + @ @ + + + + + + @ + # + + + + @ # + @ # + $ . . . .                                     ",
"                . . . + + + # + + % + @ & + @ + + @ + + # + & # + + @ + + @ + + + + * . . . .                                   ",
"                . . . @ + = = = = = = = = = = = = = = = = = = = = = = = = = = = - + + * . . . .                                 ",
"                . . . ; @ = = = = = = = = = = = = = = = = = = = = = = = = = = = = - + + $ . . . .                               ",
"                . . . + # = = = = = = = = = = = = = = = = = = = = = = = = = = = = = - + + * . . . .                             ",
"                . . . + @ = = = = = = = = = = = = = = = = = = = = = = = = = = = = = = - + + * . . . .                           ",
"                . . . @ @ = = = = = = = = = = = = = = = = = = = = = = = = = = = = = = = - @ + > . . . .                         ",
"                . . . + + = = = = = = = = = = = = = = = = = = = = = = = = = = = = = = = = , @ @ * . . . .                       ",
"                . . . @ + = = = = = = = = = = = = = = = = = = = = = = = = = = = = = = = = = ' + + * . . . .                     ",
"                . . . + @ = = = = = = = = = = = = = = = = = = = = = = = = = = = = = = = = = = - + + ) . . . .                   ",
"                . . . @ @ = = = = = = = = = = = = = = = = = = = = = = = = = = = = = = = = = = = , # + ) . . . .                 ",
"                . . . ! @ = = = = = = = = = = = = = = = = = = = = = = = = = = = = = = = = = = = = ' ~ { $ . . . .               ",
"                . . . ] ^ = = = = = = = = = = = = = = = = = = = = = = = = = = = = = = = = = = = = = / ] ^ ( . . . .             ",
"                . . . _ : = = = = = = = = = = = = = = = = = = = = = = = = = = = = = = = = = = = = = = < _ [ } . . .             ",
"                . . . | 1 = = = = = = = = = = = = = = = = = = = = = = = = = = = = = = = = = = = = = = = 2 1 3 . . .             ",
"                . . . 4 5 = = = = = = = = = = = = = = = = = = = = = = = = = = = = = = = = = = = = = = = = 4 5 . . .             ",
"                . . . 6 7 = = = = = = = = = = = = = = = = = = = = = = = = = = = = = = = = = = = = = = = = 6 8 . . .             ",
"                . . . 9 0 = = = = = = = = = = = = = = = = = = = = = = = = = = = = = = = = = = = = = = = = a 0 . . .             ",
"                . . . b b = = = = = = = = = = = = = = = = = = = = = = = = = = = = = = = = = = = = = = = = c b . . .             ",
"                . . . d e = = = = = = = = = = = = = = = = = = = = = = = = = = = = = = = = = = = = = = = = e f . . .             ",
"                . . . g g = = = = = = = = = = = = = = = = = = = = = = = = = = = = = = = = = = = = = = = = g g . . .             ",
"                . . . h i = = = = = = = = = = = = = = = = = = = = = = = = = = = = = = = = = = = = = = = = i j . . .             ",
"                . . . k l = = = = = = = = = = = = = = = = = = = = = = = = = = = = = = = = = = = = = = = = k m . . .             ",
"                . . . n n = = = = = = = = = = = = = = = = = = = = = = = = = = = = = = = = = = = = = = = = o o . . .             ",
"                . . . p q = = = = = = = = = = = = = = = = = = = = = = = = = = = = = = = = = = = = = = = = q p . . .             ",
"                . . . r s = = = = = = = = = = = = = = = = = = = = = = = = = = = = = = = = = = = = = = = = t u . . .             ",
"                . . . v v = = = = = = = = = = = = = = = = = = = = = = = = = = = = = = = = = = = = = = = = w v . . .             ",
"                . . . x y = = = = = = = = = = = = = = = = = = = = = = = = = = = = = = = = = = = = = = = = z y . . .             ",
"                . . . A B = = = = = = = = = = = = = = = = = = = = = = = = = = = = = = = = = = = = = = = = C D . . .             ",
"                . . . E E = = = = = = = = = = = = = = = = = = = = = = = = = = = = = = = = = = = = = = = = E F . . .             ",
"                . . . G H = = = = = = = = = = = = = = = = = = = = = = = = = = = = = = = = = = = = = = = = H H . . .             ",
"                . . . I I = = = = = = = = = = = = = = = = = = = = = = = = = = = = = = = = = = = = = = = = J J . . .             ",
"                . . . K L = = = = = = = = = = = = = = = = = = = = = = = = = = = = = = = = = = = = = = = = K M . . .             ",
"                . . . N N = = = = = = = = = = = = = = = = = = = = = = = = = = = = = = = = = = = = = = = = O P . . .             ",
"                . . . Q Q = = = = = = = = = = = = = = = = = = = = = = = = = = = = = = = = = = = = = = = = R S . . .             ",
"                . . . T U = = = = = = = = = = = = = = = = = = = = = = = = = = = = = = = = = = = = = = = = U U . . .             ",
"                . . . V W = = = = = = = = = = = = = = = = = = = = = = = = = = = = = = = = = = = = = = = = V W . . .             ",
"                . . . X Y = = = = = = = = = = = = = = = = = = = = = = = = = = = = = = = = = = = = = = = = Y X . . .             ",
"                . . . Z Z = = = = = = = = = = = = = = = = = = = = = = = = = = = = = = = = = = = = = = = = ` Z . . .             ",
"                . . .  ...= = = = = = = = = = = = = = = = = = = = = = = = = = = = = = = = = = = = = = = =  .+.. . .             ",
"                . . . @.#.= = = = = = = = = = = = = = = = = = = = = = = = = = = = = = = = = = = = = = = = @.@.. . .             ",
"                . . . $.%.= = = = = = = = = = = = = = = = = = = = = = = = = = = = = = = = = = = = = = = = $.$.. . .             ",
"                . . . &.&.= = = = = = = = = = = = = = = = = = = = = = = = = = = = = = = = = = = = = = = = &.&.. . .             ",
"                . . . *.=.= = = = = = = = = = = = = = = = = = = = = = = = = = = = = = = = = = = = = = = = *.=.. . .             ",
"                . . . -.;.= = = = = = = = = = = = = = = = = = = = = = = = = = = = = = = = = = = = = = = = >.,.. . .             ",
"                . . . '.).= = = = = = = = = = = = = = = = = = = = = = = = = = = = = = = = = = = = = = = = !.!.. . .             ",
"                . . . ~.{.= = = = = = = = = = = = = = = = = = = = = = = = = = = = = = = = = = = = = = = = ~.~.. . .             ",
"                . . . {.~.= = = = = = = = = = = = = = = = = = = = = = = = = = = = = = = = = = = = = = = = ~.~.. . .             ",
"                . . . ~.~.= = = = = = = = = = = = = = = = = = = = = = = = = = = = = = = = = = = = = = = = {.{.. . .             ",
"                . . . ~.~.= = = = = = = = = = = = = = = = = = = = = = = = = = = = = = = = = = = = = = = = ~.~.. . .             ",
"                . . . ].~.= = = = = = = = = = = = = = = = = = = = = = = = = = = = = = = = = = = = = = = = {.~.. . .             ",
"                . . . ~.~.= = = = = = = = = = = = = = = = = = = = = = = = = = = = = = = = = = = = = = = = ~.{.. . .             ",
"                . . . {.~.= = = = = = = = = = = = = = = = = = = = = = = = = = = = = = = = = = = = = = = = ~.~.. . .             ",
"                . . . ~.~.= = = = = = = = = = = = = = = = = = = = = = = = = = = = = = = = = = = = = = = = ~.{.. . .             ",
"                . . . {.~.{.{.~.~.~.{.{.{.~.{.~.~.~.{.~.{.~.~.~.{.~.!.~.~.~.{.{.~.{.~.~.~.~.{.~.~.~.~.~.~.{.~.. . .             ",
"                . . . {.{.~.~.~.{.~.{.~.{.~.~.{.~.{.~.{.~.~.~.~.~.~.~.~.{.~.{.~.~.~.~.{.{.~.{.~.{.{.!.~.~.~.~.. . .             ",
"                . . . . . . . . . . . . . . . . . . . . . . . . . . . . . . . . . . . . . . . . . . . . . . . . . .             ",
"                . . . . . . . . . . . . . . . . . . . . . . . . . . . . . . . . . . . . . . . . . . . . . . . . . .             ",
"                . . . . . . . . . . . . . . . . . . . . . . . . . . . . . . . . . . . . . . . . . . . . . . . . . .             ",
"                                                                                                                                "};
