/* XPM */
static const char * open_xpm[] = {
"64 64 298 2",
"  	c None",
". 	c #343434",
"+ 	c #373E34",
"@ 	c #476636",
"# 	c #4C7036",
"$ 	c #4C7136",
"% 	c #4A6D36",
"& 	c #3D4F35",
"* 	c #6CB13B",
"= 	c #8AE641",
"- 	c #8DEB41",
"; 	c #8CEB41",
"> 	c #8CEB42",
", 	c #8CEA41",
"' 	c #8DEB42",
") 	c #8BE941",
"! 	c #80D63F",
"~ 	c #445F36",
"{ 	c #81D53F",
"] 	c #90F142",
"^ 	c #A2F371",
"/ 	c #A8F37B",
"( 	c #A6F378",
"_ 	c #98F25A",
": 	c #8FF042",
"< 	c #72BB3C",
"[ 	c #83D93F",
"} 	c #E9FCE2",
"| 	c #FAFEF9",
"1 	c #F9FEF7",
"2 	c #D6F9C7",
"3 	c #93F14A",
"4 	c #5B8F38",
"5 	c #81D73E",
"6 	c #8EEF41",
"7 	c #ECFCE6",
"8 	c #FFFFFF",
"9 	c #FAFEF8",
"0 	c #B8F499",
"a 	c #8FEF40",
"b 	c #83DA3F",
"c 	c #466436",
"d 	c #7ED33C",
"e 	c #8BEB3E",
"f 	c #ECFBE6",
"g 	c #EEFBE8",
"h 	c #9EED6E",
"i 	c #8AEA3D",
"j 	c #74C13A",
"k 	c #456335",
"l 	c #7BD039",
"m 	c #87E73B",
"n 	c #EBFAE6",
"o 	c #DCF6D1",
"p 	c #9CE96D",
"q 	c #87E63B",
"r 	c #71BD38",
"s 	c #507B35",
"t 	c #4E7935",
"u 	c #4E7835",
"v 	c #4F7935",
"w 	c #4B7135",
"x 	c #3C4D34",
"y 	c #78CD37",
"z 	c #84E337",
"A 	c #EBF9E6",
"B 	c #DBF5D1",
"C 	c #99E66C",
"D 	c #84E238",
"E 	c #81DE37",
"F 	c #82DF38",
"G 	c #81DF38",
"H 	c #82DE37",
"I 	c #81DE38",
"J 	c #82DF37",
"K 	c #81DF37",
"L 	c #82DE38",
"M 	c #80DD38",
"N 	c #72C336",
"O 	c #394434",
"P 	c #74C934",
"Q 	c #80DF34",
"R 	c #EBF8E6",
"S 	c #DBF3D1",
"T 	c #A7E687",
"U 	c #A5E684",
"V 	c #A5E683",
"W 	c #A4E583",
"X 	c #A5E583",
"Y 	c #A4E683",
"Z 	c #A0E57C",
"` 	c #87E049",
" .	c #7BD334",
"..	c #425D34",
"+.	c #72C532",
"@.	c #7EDB31",
"#.	c #EAF8E5",
"$.	c #FBFEFA",
"%.	c #F5FBF2",
"&.	c #92DF66",
"*.	c #79D132",
"=.	c #6FC230",
"-.	c #79D72F",
";.	c #EAF7E5",
">.	c #F6FCF4",
",.	c #92DB68",
"'.	c #75CD2F",
").	c #415C33",
"!.	c #6CBE2D",
"~.	c #76D22C",
"{.	c #EAF6E5",
"].	c #F6FBF4",
"^.	c #8FD967",
"/.	c #72CA2C",
"(.	c #405C33",
"_.	c #69BA2B",
":.	c #72CE29",
"<.	c #8DD568",
"[.	c #6FC629",
"}.	c #3F5A33",
"|.	c #66B629",
"1.	c #6FCB26",
"2.	c #8BD167",
"3.	c #6CC227",
"4.	c #3F5933",
"5.	c #353734",
"6.	c #343634",
"7.	c #83D83F",
"8.	c #90F042",
"9.	c #90F041",
"0.	c #8FED41",
"a.	c #7FD33F",
"b.	c #7DCF3E",
"c.	c #7ECF3E",
"d.	c #7DCE3E",
"e.	c #75C03D",
"f.	c #4F7637",
"g.	c #80D63D",
"h.	c #8DED40",
"i.	c #8EED40",
"j.	c #8DEE40",
"k.	c #8EED3F",
"l.	c #8EEE40",
"m.	c #82D83E",
"n.	c #405535",
"o.	c #7FD33C",
"p.	c #8BEA3E",
"q.	c #FDFEFC",
"r.	c #E8FAE1",
"s.	c #E5F9DD",
"t.	c #A3ED78",
"u.	c #68A939",
"v.	c #7CD13A",
"w.	c #88E83C",
"x.	c #ECFAE6",
"y.	c #DEF7D4",
"z.	c #8AE743",
"A.	c #83DE3B",
"B.	c #496C35",
"C.	c #7ACE39",
"D.	c #86E53A",
"E.	c #FCFEFB",
"F.	c #B0EC93",
"G.	c #87E53A",
"H.	c #71BE38",
"I.	c #363B34",
"J.	c #78CC37",
"K.	c #EAF9E4",
"L.	c #8EE454",
"M.	c #528235",
"N.	c #76C935",
"O.	c #82DF35",
"P.	c #FEFFFE",
"Q.	c #C2EDAE",
"R.	c #81DF35",
"S.	c #75C835",
"T.	c #3B4B34",
"U.	c #74C634",
"V.	c #7FDD33",
"W.	c #F3FBF0",
"X.	c #98E16E",
"Y.	c #7FDB34",
"Z.	c #5C9734",
"`.	c #72C432",
" +	c #7DDA32",
".+	c #D6F1CB",
"++	c #7FDA37",
"@+	c #77CD32",
"#+	c #436134",
"$+	c #70C230",
"%+	c #7AD730",
"&+	c #FAFDF9",
"*+	c #A5E189",
"=+	c #7BD72F",
"-+	c #65AC31",
";+	c #353834",
">+	c #6EBF2F",
",+	c #78D52D",
"'+	c #E5F5DF",
")+	c #81D648",
"!+	c #76CF2D",
"~+	c #4B7532",
"{+	c #6CBD2D",
"]+	c #75D22B",
"^+	c #FEFEFD",
"/+	c #B8E4A5",
"(+	c #76D22B",
"_+	c #69B82E",
":+	c #384434",
"<+	c #69BA2C",
"[+	c #73CF29",
"}+	c #E9F6E5",
"|+	c #F0F8ED",
"1+	c #8AD562",
"2+	c #73CE29",
"3+	c #528831",
"4+	c #67B82B",
"5+	c #71CC27",
"6+	c #E9F5E5",
"7+	c #CDE9C3",
"8+	c #72CC2B",
"9+	c #6BBE2A",
"0+	c #3E5633",
"a+	c #65B629",
"b+	c #6EC925",
"c+	c #E9F4E5",
"d+	c #F8FCF7",
"e+	c #99D67E",
"f+	c #6FC925",
"g+	c #599C2C",
"h+	c #63B328",
"i+	c #6CC723",
"j+	c #DFEFDA",
"k+	c #74C83B",
"l+	c #69C024",
"m+	c #436731",
"n+	c #61B026",
"o+	c #6AC421",
"p+	c #ACD99A",
"q+	c #5EA828",
"r+	c #363E34",
"s+	c #5FAE24",
"t+	c #68C11F",
"u+	c #E8F3E5",
"v+	c #EDF5EA",
"w+	c #7DC755",
"x+	c #66BF20",
"y+	c #49792F",
"z+	c #5CAB23",
"A+	c #65BE1D",
"B+	c #C3E0B9",
"C+	c #5FAF22",
"D+	c #3A4C33",
"E+	c #5BA922",
"F+	c #63BB1B",
"G+	c #E8F2E5",
"H+	c #F6FAF5",
"I+	c #8DC872",
"J+	c #62BB1B",
"K+	c #4E8B2A",
"L+	c #59A621",
"M+	c #61B819",
"N+	c #DAEAD5",
"O+	c #65BA2C",
"P+	c #5EB21D",
"Q+	c #3E5C31",
"R+	c #56A41F",
"S+	c #5EB616",
"T+	c #E8F1E5",
"U+	c #FBFDFB",
"V+	c #A2CE91",
"W+	c #5EB617",
"X+	c #529924",
"Y+	c #353934",
"Z+	c #55A11E",
"`+	c #5BB315",
" @	c #F9FBF8",
".@	c #6EB948",
"+@	c #5AB017",
"@@	c #426C2E",
"#@	c #539F1E",
"$@	c #5AB113",
"%@	c #86C06F",
"&@	c #7BBB5E",
"*@	c #59B114",
"=@	c #53A01E",
"-@	c #374433",
";@	c #58AD16",
">@	c #58AC16",
",@	c #58AD17",
"'@	c #58AC17",
")@	c #56A819",
"!@	c #467A2A",
"~@	c #3C5730",
"{@	c #3B5730",
"]@	c #3C5830",
"^@	c #3B5830",
"/@	c #394F32",
"                                                                                                                                ",
"                                                                                                                                ",
"                                                                                                                                ",
"                                                                                                                                ",
"                                                                                                                                ",
"                                                                                                                                ",
"                                                                                                                                ",
"                                                                                                                                ",
"                                                                                                                                ",
"    . . . . . . . . . . . . . . . . . . . . . . . . . .                                                                         ",
"    . . . . . . . . . . . . . . . . . . . . . . . . . . .                                                                       ",
"  . . . + @ # # # # # # $ $ # $ # $ # $ # # $ # % & . . . .                                                                     ",
"  . . . * = - ; > , - ; - ' ; - ; ; ; ; ; ; - ' ) ! ~ . . .                                                                     ",
"  . . . { ] ^ / / / / / / / / / / / / / / / / ( _ : < + . . .                                                                   ",
"  . . . [ ] } | | | | | | | | | | | | | | | | 1 2 3 , 4 . . . .                                                                 ",
"  . . . 5 6 7 8 8 8 8 8 8 8 8 8 8 8 8 8 8 8 8 8 9 0 a b c . . . . . . . . . . . . . . . . . . . . . . . . . .                   ",
"  . . . d e f 8 8 8 8 8 8 8 8 8 8 8 8 8 8 8 8 8 8 g h i j k . . . . . . . . . . . . . . . . . . . . . . . . . .                 ",
"  . . . l m n 8 8 8 8 8 8 8 8 8 8 8 8 8 8 8 8 8 8 8 o p q r s t u u t v u u u u u t u u u u u v t u u w x . . .                 ",
"  . . . y z A 8 8 8 8 8 8 8 8 8 8 8 8 8 8 8 8 8 8 8 8 B C D E F G H I H H J J F K I H L J H H H J K J M N O . .                 ",
"  . . . P Q R 8 8 8 8 8 8 8 8 8 8 8 8 8 8 8 8 8 8 8 8 8 S T U U U U U V V W X X Y X Y X Y V W Y V W Z `  .... .                 ",
"  . . . +.@.#.8 8 8 8 8 8 8 8 8 8 8 8 8 8 8 8 8 8 8 8 8 8 $.$.$.$.$.$.$.$.$.$.$.$.$.$.$.$.$.$.$.$.$.%.&.*.... .                 ",
"  . . . =.-.;.8 8 8 8 8 8 8 8 8 8 8 8 8 8 8 8 8 8 8 8 8 8 8 8 8 8 8 8 8 8 8 8 8 8 8 8 8 8 8 8 8 8 8 >.,.'.).. .                 ",
"  . . . !.~.{.8 8 8 8 8 8 8 8 8 8 8 8 8 8 8 8 8 8 8 8 8 8 8 8 8 8 8 8 8 8 8 8 8 8 8 8 8 8 8 8 8 8 8 ].^./.(.. .                 ",
"  . . . _.:.8 8 8 8 8 8 8 8 8 8 8 8 8 8 8 8 8 8 8 8 8 8 8 8 8 8 8 8 8 8 8 8 8 8 8 8 8 8 8 8 8 8 8 8 8 <.[.}.. .                 ",
"  . . . |.1.8 8 8 8 8 8 8 8 8 8 8 8 8 8 8 8 8 8 8 8 8 8 8 8 8 8 8 8 8 8 8 8 8 8 8 8 8 8 8 8 8 8 8 8 8 2.3.4.. . . . . . .       ",
"  . . . . . . . . . . . . . . . . . . . . . . . . . . . . . . . . . . . . . . . . . . . . . . . . . . . . . . . . . . . . .     ",
"  . . . . . . . . . . . . . . . . . . . . . . . . . . . . . . . . . . . . . . . . . . . . . . . . . . . . . . . . 5.6.. . . .   ",
"  . . . 7.8.8.8.8.8.8.8.8.8.8.8.8.8.8.8.8.8.8.8.8.8.8.8.8.8.8.8.8.8.8.8.8.8.8.8.8.8.8.8.8.8.8.8.9.8.8.8.8.0.a.b.c.d.e.f.. . .   ",
"  . . . g.h.i.j.h.i.k.h.h.h.l.l.j.i.j.i.i.i.i.i.h.h.h.i.h.h.i.j.h.h.h.j.l.l.i.i.l.k.h.i.h.i.h.i.h.i.j.j.h.i.i.l.i.i.m.n.. . .   ",
"  . . . o.p.f 8 8 8 8 8 8 8 8 8 8 8 8 8 8 8 8 8 8 8 8 8 8 8 8 8 8 8 8 8 8 8 8 8 8 8 8 8 8 8 8 8 8 8 8 8 q.r.s.s.t.p.u.. . .     ",
"  . . . v.w.x.8 8 8 8 8 8 8 8 8 8 8 8 8 8 8 8 8 8 8 8 8 8 8 8 8 8 8 8 8 8 8 8 8 8 8 8 8 8 8 8 8 8 8 8 8 8 8 8 y.z.A.B.. . .     ",
"  . . . C.D.n 8 8 8 8 8 8 8 8 8 8 8 8 8 8 8 8 8 8 8 8 8 8 8 8 8 8 8 8 8 8 8 8 8 8 8 8 8 8 8 8 8 8 8 8 8 8 8 E.F.G.H.I.. .       ",
"  . . . J.D A 8 8 8 8 8 8 8 8 8 8 8 8 8 8 8 8 8 8 8 8 8 8 8 8 8 8 8 8 8 8 8 8 8 8 8 8 8 8 8 8 8 8 8 8 8 8 8 K.L.H M.. . .       ",
"  . . . N.O.A 8 8 8 8 8 8 8 8 8 8 8 8 8 8 8 8 8 8 8 8 8 8 8 8 8 8 8 8 8 8 8 8 8 8 8 8 8 8 8 8 8 8 8 8 8 8 P.Q.R.S.T.. . .       ",
"  . . . U.V.R 8 8 8 8 8 8 8 8 8 8 8 8 8 8 8 8 8 8 8 8 8 8 8 8 8 8 8 8 8 8 8 8 8 8 8 8 8 8 8 8 8 8 8 8 8 8 W.X.Y.Z.. . .         ",
"  . . . `. +;.8 8 8 8 8 8 8 8 8 8 8 8 8 8 8 8 8 8 8 8 8 8 8 8 8 8 8 8 8 8 8 8 8 8 8 8 8 8 8 8 8 8 8 8 8 8 .+++@+#+. . .         ",
"  . . . $+%+;.8 8 8 8 8 8 8 8 8 8 8 8 8 8 8 8 8 8 8 8 8 8 8 8 8 8 8 8 8 8 8 8 8 8 8 8 8 8 8 8 8 8 8 8 8 &+*+=+-+;+. .           ",
"  . . . >+,+;.8 8 8 8 8 8 8 8 8 8 8 8 8 8 8 8 8 8 8 8 8 8 8 8 8 8 8 8 8 8 8 8 8 8 8 8 8 8 8 8 8 8 8 8 8 '+)+!+~+. . .           ",
"  . . . {+]+{.8 8 8 8 8 8 8 8 8 8 8 8 8 8 8 8 8 8 8 8 8 8 8 8 8 8 8 8 8 8 8 8 8 8 8 8 8 8 8 8 8 8 8 8 ^+/+(+_+:+. . .           ",
"  . . . <+[+}+8 8 8 8 8 8 8 8 8 8 8 8 8 8 8 8 8 8 8 8 8 8 8 8 8 8 8 8 8 8 8 8 8 8 8 8 8 8 8 8 8 8 8 8 |+1+2+3+. . .             ",
"  . . . 4+5+6+8 8 8 8 8 8 8 8 8 8 8 8 8 8 8 8 8 8 8 8 8 8 8 8 8 8 8 8 8 8 8 8 8 8 8 8 8 8 8 8 8 8 8 8 7+8+9+0+. . .             ",
"  . . . a+b+c+8 8 8 8 8 8 8 8 8 8 8 8 8 8 8 8 8 8 8 8 8 8 8 8 8 8 8 8 8 8 8 8 8 8 8 8 8 8 8 8 8 8 8 d+e+f+g+6.. .               ",
"  . . . h+i+c+8 8 8 8 8 8 8 8 8 8 8 8 8 8 8 8 8 8 8 8 8 8 8 8 8 8 8 8 8 8 8 8 8 8 8 8 8 8 8 8 8 8 8 j+k+l+m+. . .               ",
"  . . . n+o+c+8 8 8 8 8 8 8 8 8 8 8 8 8 8 8 8 8 8 8 8 8 8 8 8 8 8 8 8 8 8 8 8 8 8 8 8 8 8 8 8 8 8 q.p+o+q+r+. . .               ",
"  . . . s+t+u+8 8 8 8 8 8 8 8 8 8 8 8 8 8 8 8 8 8 8 8 8 8 8 8 8 8 8 8 8 8 8 8 8 8 8 8 8 8 8 8 8 8 v+w+x+y+. . .                 ",
"  . . . z+A+u+8 8 8 8 8 8 8 8 8 8 8 8 8 8 8 8 8 8 8 8 8 8 8 8 8 8 8 8 8 8 8 8 8 8 8 8 8 8 8 8 8 8 B+A+C+D+. . .                 ",
"  . . . E+F+G+8 8 8 8 8 8 8 8 8 8 8 8 8 8 8 8 8 8 8 8 8 8 8 8 8 8 8 8 8 8 8 8 8 8 8 8 8 8 8 8 8 H+I+J+K+. . .                   ",
"  . . . L+M+G+8 8 8 8 8 8 8 8 8 8 8 8 8 8 8 8 8 8 8 8 8 8 8 8 8 8 8 8 8 8 8 8 8 8 8 8 8 8 8 8 8 N+O+P+Q+. . .                   ",
"  . . . R+S+T+8 8 8 8 8 8 8 8 8 8 8 8 8 8 8 8 8 8 8 8 8 8 8 8 8 8 8 8 8 8 8 8 8 8 8 8 8 8 8 8 U+V+W+X+Y+. .                     ",
"  . . . Z+`+T+ @ @ @ @ @ @ @ @ @ @ @ @ @ @ @ @ @ @ @ @ @ @ @ @ @ @ @ @ @ @ @ @ @ @ @ @ @ @ @ @T+.@+@@@. . .                     ",
"  . . . #@$@%@%@%@%@%@%@%@%@%@%@%@%@%@%@%@%@%@%@%@%@%@%@%@%@%@%@%@%@%@%@%@%@%@%@%@%@%@%@%@%@%@&@*@=@-@. . .                     ",
"  . . . =@;@;@>@;@,@>@'@>@'@,@;@>@'@>@>@;@,@>@>@;@;@>@,@,@;@;@,@;@>@'@;@;@;@>@'@;@>@;@>@,@,@,@>@)@!@. . .                       ",
"  . . . ~@~@~@{@~@~@]@~@^@]@{@]@~@]@~@]@~@~@~@~@~@~@~@]@~@~@]@]@]@~@{@~@^@~@]@~@]@]@~@~@~@]@{@~@/@;+. . .                       ",
"  . . . . . . . . . . . . . . . . . . . . . . . . . . . . . . . . . . . . . . . . . . . . . . . . . . .                         ",
"  . . . . . . . . . . . . . . . . . . . . . . . . . . . . . . . . . . . . . . . . . . . . . . . . . . .                         ",
"                                                                                                                                ",
"                                                                                                                                ",
"                                                                                                                                ",
"                                                                                                                                ",
"                                                                                                                                ",
"                                                                                                                                ",
"                                                                                                                                ",
"                                                                                                                                ",
"                                                                                                                                "};
